<svg id="Layer_1" data-name="Layer 1" xmlns="http://www.w3.org/2000/svg" viewBox="0 0 1103.37 187.34"><defs><style>.cls-1{fill:#1d1d1b;stroke:#1d1d1b;stroke-miterlimit:22.93;stroke-width:0.57px;fill-rule:evenodd;}</style></defs><path class="cls-1" d="M248.28,359.4h42.57V375c16.78-22.78,54-23.54,67,.81H358c13.43-18.12,41.37-23.61,59.52-13.11,11.44,6.61,18,20.36,17.25,39.86h0v93.73H391.21v-78l0,0c-.2-10.81-4.35-16.6-13.54-16.07s-13.89,7.95-14.14,18.91v75.11H319.59V417.54c-.38-10.31-4.54-15.75-13.51-15.3-14.95.74-14.21,19.5-14.22,19.5v74.52H248.28V359.4Zm261-2.12c38.29,0,69.33,31.59,69.33,70.56s-31,70.56-69.33,70.56S440,466.81,440,427.84s31-70.56,69.33-70.56Zm0,45.15c13,0,23.6,11.38,23.6,25.41s-10.57,25.41-23.6,25.41-23.6-11.38-23.6-25.41,10.56-25.41,23.6-25.41Zm78.81-43h42.57V371c14.44-14.24,38.92-17.85,55.36-8.34,11.44,6.61,18,20.36,17.26,39.86h0v93.73H659.71v-78l0,0c-.2-10.81-4.35-16.6-13.54-16.07s-12.93,6.52-14.14,18.91v75.11H588.09V359.4Zm313.39-2.12c38.29,0,69.33,31.59,69.33,70.56s-31,70.56-69.33,70.56-69.33-31.59-69.33-70.56,31-70.56,69.33-70.56Zm0,45.15c13,0,23.6,11.38,23.6,25.41s-10.57,25.41-23.6,25.41-23.6-11.38-23.6-25.41,10.56-25.41,23.6-25.41ZM769.92,357.79a62.62,62.62,0,0,1,17.59,2.47h44.33l-14.23,20.48.53.69c7.74,10.34,12,23.46,12.61,37.14s-4.36,26.38-12.81,36.66c14.76,23.53,15.6,47.24-3.44,71.2-29.77,28.83-81,19.49-109.27-7.88L728.69,486c22.93,23.81,63.51,24.28,54.93-8.93a63.06,63.06,0,0,1-15.88,2.07c-21.23,0-39.86-10.37-50.08-26.76-6-9.55-8.39-21.25-8.58-33.85-.5-34.24,26.07-60.78,60.84-60.78Zm-1,43.74a17.31,17.31,0,1,1-17.3,17.3,17.31,17.31,0,0,1,17.3-17.3Zm272.31-44.25c38.29,0,69.33,31.59,69.33,70.56s-31,70.56-69.33,70.56-69.33-31.59-69.33-70.56,31-70.56,69.33-70.56Zm0,45.15c13,0,23.6,11.38,23.6,25.41s-10.57,25.41-23.6,25.41-23.6-11.38-23.6-25.41,10.57-25.41,23.6-25.41Zm143.57-42v39.13c-5.63-2.72-16.89-4.71-22.45-1.69-3.34,1.82-5.16,9.34-.36,13.92,9.71,9.27,23.61,19.5,25.7,38.59,6.09,55.81-54.67,47.28-71.76,44.37l-.84-41.89c18.17,6.55,25.58.33,24.87-7.24-.69-7.25-13.07-14.86-17.84-20.77-10.75-10.73-17.29-39.07,3.57-55.47,13.73-10.8,39.38-12.76,59.11-8.95Zm75.3-2.94c30,0,52.63,19.34,62.32,46.41L1249.68,456c17.26,7.8,41.18,1.1,61.33-17.12.56,12,2.73,33.05,3.21,44.45-16.5,10.22-35.82,15.07-54.77,15.07-42,0-69-29.25-68.66-69.89s31-71.06,69.33-71.06Zm13.29,41.4L1232,429c-5.63-26,23.59-45.42,41.4-30.17Zm62,56.71a15.28,15.28,0,0,1,6,1.22,15.76,15.76,0,0,1,5,3.47,16.51,16.51,0,0,1,2.47,19.43,15.62,15.62,0,0,1-5.69,5.86,15.39,15.39,0,0,1-15.69,0,15.62,15.62,0,0,1-5.69-5.86,16.59,16.59,0,0,1,0-16.12,15.59,15.59,0,0,1,5.69-5.85,15.07,15.07,0,0,1,7.85-2.15Zm0,3.15a12.13,12.13,0,0,0-6.31,1.73,12.65,12.65,0,0,0-4.59,4.71,13.23,13.23,0,0,0,0,13,12.68,12.68,0,0,0,4.6,4.71,12.37,12.37,0,0,0,12.6,0,12.75,12.75,0,0,0,4.54-4.71,13.45,13.45,0,0,0,0-13,12.57,12.57,0,0,0-4.55-4.69,12,12,0,0,0-6.3-1.72Zm7,22h-3l-1.42-4.87a3.92,3.92,0,0,0-.41-.93,3.26,3.26,0,0,0-.59-.73,2.35,2.35,0,0,0-.74-.48,2.19,2.19,0,0,0-.87-.18h-3v7.19h-2.76v-17.9h6.63q.6,0,1.14,0a5.44,5.44,0,0,1,1,.16,4,4,0,0,1,1,.36,3.29,3.29,0,0,1,.86.67,4.44,4.44,0,0,1,.64.84,5.55,5.55,0,0,1,.45,1,7.11,7.11,0,0,1,.28,1.08,6.92,6.92,0,0,1,.09,1.11,5.64,5.64,0,0,1-.66,2.81,4.46,4.46,0,0,1-1.8,1.8,6.28,6.28,0,0,1,1.54,2.76l1.59,5.29Zm-10-10.27h3.68a5.83,5.83,0,0,0,1.27-.12,2,2,0,0,0,.87-.41,1.61,1.61,0,0,0,.49-.74,3.36,3.36,0,0,0,.16-1.12,2.24,2.24,0,0,0-.62-1.75,2.74,2.74,0,0,0-1.89-.56h-4v4.7Z" transform="translate(-248 -357)"/></svg>